PathFileType	4	(X/Y/Z)	C:\Users\chris\Documents\GitHub\baseballds\vids\pitch0_Sports2D\pitch0_Sports2D_m_person00.trc
DataRate	CameraRate	NumFrames	NumMarkers	Units	OrigDataRate	OrigDataStartFrame	OrigNumFrames
30	30	6	22	m	30	27	110
Frame#	Time	Hip			RHip			RKnee			RAnkle			RBigToe			RSmallToe			RHeel			LHip			LKnee			LAnkle			LBigToe			LSmallToe			LHeel			Neck			Head			Nose			RShoulder			RElbow			RWrist			LShoulder			LElbow			LWrist		
		X1	Y1	Z1	X2	Y2	Z2	X3	Y3	Z3	X4	Y4	Z4	X5	Y5	Z5	X6	Y6	Z6	X7	Y7	Z7	X8	Y8	Z8	X9	Y9	Z9	X10	Y10	Z10	X11	Y11	Z11	X12	Y12	Z12	X13	Y13	Z13	X14	Y14	Z14	X15	Y15	Z15	X16	Y16	Z16	X17	Y17	Z17	X18	Y18	Z18	X19	Y19	Z19	X20	Y20	Z20	X21	Y21	Z21	X22	Y22	Z22
27	0.9	1.208016564594916	0.9126745008440269	0.0	1.0961448498066255	0.8938439833157757	0.0	1.0878859604427378	0.45689991451707873	0.0	1.0906498226321466	0.09603265580789397	0.0	1.0949084563634226	-0.05183288193945195	0.0	1.0307404508922564	-0.031080684843599774	0.0	1.10917424161223	0.042077736179467466	0.0	1.3236892978863444	0.8993425298168688	0.0	1.378705864187999	0.47934230765752267	0.0	1.447069541455406	0.13094802454545967	0.0	1.3614028472384152	-0.011309560966432179	0.0	1.439327309483649	-0.0024671207542273713	0.0	1.472627160980184	0.08855413144266763	0.0	1.1783089604247374	1.5713914233057102	0.0	1.2073672613246809	1.861808543832668	0.0	1.304437847453022	1.6945761327758613	0.0	0.9495035429597164	1.4423722401796149	0.0	0.9234762470817254	1.1508591640390318	0.0	1.10599329344117	1.0352181299376935	0.0	1.3884026443934845	1.457662125542335	0.0	1.4646823568402116	1.1740005214314473	0.0	1.3577437560717271	1.0011787823703284	0.0
28	0.9333333333333333	1.2091769993447619	0.9149146974374699	0.0	1.0971780844902552	0.8960977402561956	0.0	1.0888451526408964	0.4575077346281527	0.0	1.0918025734314794	0.09510791801589476	0.0	1.0957505832065988	-0.05424707144734164	0.0	1.0323949503540162	-0.03367628461151976	0.0	1.1106486475638946	0.043395245290144824	0.0	1.3244302948275801	0.9022693731283867	0.0	1.381668431930803	0.480775207648526	0.0	1.448213588923714	0.1298707330071062	0.0	1.3648224485108216	-0.012080169759753248	0.0	1.44193564990481	-0.003978138245041329	0.0	1.4741132295020059	0.08775069423964085	0.0	1.1775111987135394	1.5700071978564738	0.0	1.2048775846287894	1.8629928354323293	0.0	1.3031015865767543	1.6950919600521621	0.0	0.9486671542673341	1.44057321655884	0.0	0.9227885896588097	1.1501439896878125	0.0	1.1069134917406036	1.0397906797331742	0.0	1.3903270997356858	1.4570993196586557	0.0	1.4638532251304253	1.1746593132673073	0.0	1.3584962881387235	1.0021368450098782	0.0
29	0.9666666666666667	1.208264614502094	0.9144130145482706	0.0	1.097913008350081	0.8955931525525228	0.0	1.0900192993440898	0.4559973331139302	0.0	1.0947139860416781	0.09392510014739215	0.0	1.097306298039625	-0.05701571549198074	0.0	1.0349578464524591	-0.036267781271274405	0.0	1.1137244957210353	0.0420349945623936	0.0	1.3239552404191823	0.9027186284033054	0.0	1.3839972122667328	0.4816212084292657	0.0	1.4504152011214424	0.12853960422627697	0.0	1.3655640956792645	-0.012664895356997354	0.0	1.442426474037656	-0.005081870165865987	0.0	1.476025408433779	0.08614897511143048	0.0	1.1750579059330208	1.5701171752688403	0.0	1.2016379243953148	1.8628271552769016	0.0	1.3010851265202297	1.695895375680893	0.0	0.9458939576412706	1.4387183579086167	0.0	0.919892133889948	1.150233273508036	0.0	1.1043237350736408	1.0453042050522878	0.0	1.3897360404584926	1.4562023992567326	0.0	1.4619415518210583	1.1763019212267318	0.0	1.3574951038926792	1.0027755738652717	0.0
30	1.0	1.205980002690758	0.9130967897302245	0.0	1.0967175508172413	0.8944382223089592	0.0	1.0916385920860359	0.45353354582238337	0.0	1.0977067628144825	0.0937492793659127	0.0	1.0995811784017449	-0.05768206622061308	0.0	1.037553815509662	-0.0367232082079908	0.0	1.116809634939126	0.04186141889714432	0.0	1.3211777516324383	0.9018630156016305	0.0	1.3849383558992105	0.482157952910665	0.0	1.4530218195219706	0.1275332258856338	0.0	1.3635468294976492	-0.013371093830096301	0.0	1.4413530841293054	-0.006265412297865616	0.0	1.478405109519807	0.08298508230965415	0.0	1.1717452166053437	1.57008069923518	0.0	1.1979008415057397	1.8618344755593073	0.0	1.2973452713747724	1.696122612444248	0.0	0.9420213771594371	1.437179687942725	0.0	0.91636825166671	1.1493554470147367	0.0	1.0962428128095987	1.0517979890959588	0.0	1.3868685916964385	1.4548454483985862	0.0	1.4596569415612122	1.17750042992811	0.0	1.3557503178046684	1.0069432004694576	0.0
31	1.0333333333333332	1.2032177937550372	0.9147723951498093	0.0	1.093052489737015	0.8956174817582899	0.0	1.0930781586302458	0.45305344698572153	0.0	1.0993610717817115	0.09438438264575534	0.0	1.101513119771243	-0.05672805724460738	0.0	1.0396714705524621	-0.035975072711066244	0.0	1.1182711658381834	0.04468171736176208	0.0	1.3164228013826405	0.903376672638815	0.0	1.3843630427382136	0.4843906722459133	0.0	1.4544055476258735	0.1266449146168767	0.0	1.3622132457158986	-0.01472312891358772	0.0	1.4411439482479074	-0.007059404013061052	0.0	1.4801931904428627	0.07925916066698636	0.0	1.1676589032121554	1.5691478085041242	0.0	1.1938416394506874	1.8623178267496165	0.0	1.2923924768082578	1.6956889129618562	0.0	0.9371535124446804	1.4360977612931878	0.0	0.9128370913570238	1.1464783625909518	0.0	1.0834680171439834	1.0585013575331246	0.0	1.382659432967945	1.4542216694084507	0.0	1.4566832152751148	1.1758536747179296	0.0	1.3520480192747877	1.0156486091267272	0.0
32	1.0666666666666667	1.1985145828618708	0.9188522610947168	0.0	1.0882298497686447	0.898258549222795	0.0	1.093051138859053	0.4549042857031702	0.0	1.0995359562584948	0.09442741183284732	0.0	1.1026659852290328	-0.05738396699275402	0.0	1.0415321441944576	-0.03673645692784049	0.0	1.1182954937644634	0.04625099388904066	0.0	1.3104760457819367	0.9075320185465378	0.0	1.3827871624547343	0.4882251916775189	0.0	1.4552088417956632	0.12525188942408486	0.0	1.363553347661424	-0.01601673143956099	0.0	1.4422158100722096	-0.007003426416150372	0.0	1.4812205538808123	0.07660169082763338	0.0	1.1615546000743255	1.5686152345401492	0.0	1.1892339583717042	1.864063346942243	0.0	1.2868196673155874	1.6954100068912017	0.0	0.9300415149647641	1.4346869652133774	0.0	0.9080993020308807	1.1419027306973648	0.0	1.069543566679783	1.0644860631193558	0.0	1.3764352050599091	1.4550735444181802	0.0	1.4519317721769032	1.1716409276765167	0.0	1.3449829694105218	1.0252745298336348	0.0
